<?xml version="1.0" standalone="no"?>
<!DOCTYPE svg PUBLIC "-//W3C//DTD SVG 20010904//EN"
 "http://www.w3.org/TR/2001/REC-SVG-20010904/DTD/svg10.dtd">
<svg version="1.0" xmlns="http://www.w3.org/2000/svg"
 width="200.000000pt" height="200.000000pt" viewBox="0 0 200.000000 200.000000"
 preserveAspectRatio="xMidYMid meet">

<g transform="translate(0.000000,200.000000) scale(0.100000,-0.100000)"
fill="#000000" stroke="none">
<path d="M870 1967 c-24 -18 -56 -42 -70 -54 -13 -13 -32 -23 -40 -23 -8 0
-21 -9 -28 -20 -9 -14 -23 -20 -51 -20 -61 0 -56 -15 6 -17 54 -1 113 -19 113
-33 0 -19 -40 -40 -76 -40 -48 0 -80 20 -71 44 4 9 2 16 -3 16 -6 0 -10 -3
-10 -8 0 -4 -20 -6 -44 -4 -48 4 -86 -11 -86 -33 0 -12 -10 -14 -55 -9 -36 5
-55 3 -55 -4 0 -6 -3 -17 -6 -26 -5 -14 4 -16 62 -16 38 0 122 -5 186 -10 127
-9 175 -27 212 -77 l19 -26 -29 -24 c-16 -12 -34 -23 -41 -23 -7 0 -17 -9 -23
-20 -6 -11 -19 -24 -30 -30 -15 -8 -24 -5 -44 15 -23 23 -33 26 -88 23 l-62
-3 -3 -51 c-3 -56 5 -64 70 -64 26 0 38 -15 17 -22 -11 -4 -18 -38 -19 -95 -1
-41 -2 -43 -31 -43 -29 0 -30 -2 -28 -39 2 -22 5 -38 7 -35 9 9 50 -47 56 -77
4 -18 13 -39 20 -46 7 -7 11 -22 8 -33 -4 -15 0 -20 14 -20 18 0 21 9 26 74 4
40 11 85 17 100 5 15 12 38 14 52 9 48 34 74 70 74 18 0 49 7 68 15 48 19 247
28 318 13 68 -14 80 -33 79 -123 l-1 -60 -80 -2 c-60 -2 -91 -8 -125 -25 -29
-15 -40 -24 -30 -26 12 -3 17 -14 17 -42 l0 -38 33 12 c17 6 37 14 42 18 6 3
21 -2 34 -13 13 -10 18 -19 12 -19 -6 0 -11 -5 -11 -11 0 -8 18 -10 59 -6 l59
5 7 -34 c5 -28 0 -47 -24 -91 -17 -31 -31 -64 -31 -73 0 -9 -24 -54 -52 -98
-60 -92 -101 -120 -194 -129 -57 -6 -91 9 -163 72 -21 18 -32 24 -29 13 12
-29 58 -98 67 -98 4 0 19 -9 32 -20 12 -12 39 -31 59 -43 62 -38 85 -67 81
-104 -2 -24 2 -33 13 -33 8 0 19 -7 24 -16 16 -28 57 -8 119 56 43 45 65 60
86 60 15 0 27 -6 27 -12 0 -7 7 -4 16 7 13 17 16 18 24 5 5 -8 10 -23 10 -33
0 -10 5 -15 10 -12 6 4 8 11 4 16 -3 6 -3 21 0 34 4 17 11 22 26 18 24 -6 28
22 4 31 -8 3 -13 10 -10 14 3 5 -18 17 -46 27 l-51 18 6 111 c8 141 12 156 45
156 26 0 82 52 82 77 0 7 4 13 10 13 5 0 7 7 4 15 -4 8 -3 31 0 50 7 36 12 37
65 12 19 -9 25 -9 28 1 7 18 83 16 83 -3 0 -8 7 -15 15 -15 13 0 22 27 28 90
l2 25 -105 0 c-119 0 -120 1 -126 85 -2 25 -11 99 -19 165 -19 145 -31 162
-115 172 -30 3 -60 10 -67 15 -6 5 -49 19 -95 32 l-83 22 -3 43 -3 43 173 -4
c192 -5 218 -12 280 -72 61 -59 73 -107 73 -291 0 -88 4 -163 8 -166 12 -9 90
-10 103 -1 8 4 16 94 24 257 6 138 15 254 19 258 18 19 41 -6 42 -47 1 -22 4
-31 6 -18 5 25 1 25 73 8 49 -11 55 -15 52 -36 -2 -12 2 -27 10 -31 9 -6 3 -9
-17 -9 l-30 0 3 -62 c2 -35 7 -67 12 -71 4 -5 31 -9 59 -9 28 1 51 -3 51 -9 0
-5 -5 -9 -10 -9 -12 0 14 -55 30 -65 7 -4 10 108 10 334 l0 341 -542 -1 -543
-1 -45 -31z m1050 -382 c0 -8 -7 -15 -16 -15 -14 0 -14 3 -4 15 7 8 14 15 16
15 2 0 4 -7 4 -15z"/>
<path d="M0 1780 l0 -60 131 0 131 0 -4 -37 c-3 -37 -3 -37 42 -45 25 -4 49
-6 55 -5 15 5 14 107 -1 107 -7 0 -14 6 -17 13 -2 6 -8 9 -12 5 -4 -4 -2 -14
4 -22 8 -10 9 -16 1 -21 -5 -3 -10 1 -10 9 0 9 -10 18 -23 21 -17 5 -23 13
-22 33 0 20 -5 27 -20 28 -60 3 -135 17 -140 25 -4 5 -31 9 -61 9 l-54 0 0
-60z"/>
<path d="M1710 1661 c0 -11 5 -23 10 -26 6 -4 10 5 10 19 0 14 -4 26 -10 26
-5 0 -10 -9 -10 -19z"/>
<path d="M1840 1589 c0 -5 5 -7 10 -4 6 3 10 8 10 11 0 2 -4 4 -10 4 -5 0 -10
-5 -10 -11z"/>
<path d="M245 1560 c-4 -6 -57 -10 -126 -10 l-119 0 0 -55 0 -54 98 -3 97 -3
3 -74 c2 -53 -1 -77 -10 -82 -7 -5 -53 -9 -101 -9 l-88 0 3 -37 3 -38 52 2
c44 1 53 -2 58 -18 5 -16 16 -19 65 -19 32 0 62 -4 65 -10 3 -5 30 -10 59 -10
l53 0 7 205 c4 112 5 209 1 215 -8 13 -112 13 -120 0z"/>
<path d="M1868 1262 c-14 -3 -17 -14 -15 -62 1 -33 6 -61 12 -63 5 -2 38 -5
73 -6 l62 -2 0 70 0 70 -57 -1 c-32 -1 -66 -3 -75 -6z"/>
<path d="M774 1155 c-27 -14 -35 -28 -22 -40 7 -7 12 -6 15 3 3 6 11 12 19 12
10 0 8 -6 -8 -22 l-21 -21 23 -19 c17 -14 26 -16 36 -7 10 8 17 7 29 -5 16
-16 45 -12 45 6 0 6 7 7 16 4 20 -8 60 19 67 45 4 13 -2 23 -16 31 -31 16
-161 26 -183 13z m76 -55 c-20 -13 -33 -13 -25 0 3 6 14 10 23 10 15 0 15 -2
2 -10z"/>
<path d="M0 1055 c0 -79 3 -95 15 -95 9 0 20 -10 25 -22 l9 -23 7 23 c3 12 12
22 19 22 8 0 27 14 43 30 18 17 41 30 56 30 28 0 43 15 24 24 -7 3 16 2 51 -1
36 -3 76 -12 90 -19 14 -8 36 -14 49 -14 29 0 64 18 57 29 -2 5 4 11 15 14 10
3 22 0 25 -7 3 -8 7 -8 11 2 8 17 24 15 24 -3 0 -8 9 -15 19 -15 26 0 52 11
47 19 -3 4 -1 23 3 42 6 27 5 36 -5 36 -7 0 -10 -5 -7 -11 4 -6 -1 -5 -10 3
-15 12 -17 11 -17 -2 0 -9 -5 -19 -11 -23 -13 -8 -368 -6 -421 3 -32 5 -38 10
-38 29 0 21 -5 24 -40 24 l-40 0 0 -95z m566 10 c-1 -27 -11 -33 -19 -11 -3 7
0 19 6 25 15 15 15 15 13 -14z"/>
<path d="M600 1100 c0 -5 5 -10 10 -10 6 0 10 5 10 10 0 6 -4 10 -10 10 -5 0
-10 -4 -10 -10z"/>
<path d="M1788 1052 l-48 -3 0 -45 c0 -41 15 -61 22 -29 3 13 6 13 32 0 15 -8
42 -15 60 -16 29 0 30 -1 9 -11 -13 -6 -23 -14 -23 -18 0 -8 75 -20 126 -20
l34 0 0 76 0 75 -82 -3 c-46 -2 -104 -4 -130 -6z"/>
<path d="M580 1004 c0 -10 5 -26 10 -34 8 -11 9 -7 4 15 -8 37 -14 45 -14 19z"/>
<path d="M561 964 c0 -11 3 -14 6 -6 3 7 2 16 -1 19 -3 4 -6 -2 -5 -13z"/>
<path d="M1080 932 c0 -15 -5 -20 -15 -16 -8 4 -22 1 -30 -6 -8 -6 -27 -11
-42 -10 -54 4 -72 0 -67 -12 14 -36 145 -63 172 -36 17 17 15 73 -3 88 -13 10
-15 9 -15 -8z"/>
<path d="M1 894 c0 -11 3 -14 6 -6 3 7 2 16 -1 19 -3 4 -6 -2 -5 -13z"/>
<path d="M956 799 c-49 -5 -91 -11 -94 -14 -14 -14 13 -17 60 -7 34 7 74 9
110 4 73 -11 118 -5 111 14 -6 16 -46 16 -187 3z"/>
<path d="M736 505 c-9 -26 -7 -32 5 -12 6 10 9 21 6 23 -2 3 -7 -2 -11 -11z"/>
<path d="M1489 497 c0 -1 -3 -18 -6 -37 -2 -19 -11 -50 -19 -68 -17 -42 -18
-34 7 -63 35 -40 86 -134 112 -206 14 -37 31 -80 38 -95 l12 -28 185 0 184 0
-4 83 c-3 45 -8 91 -13 101 -6 13 -5 17 2 13 7 -4 10 2 9 17 0 13 -4 22 -8 20
-4 -2 -9 0 -13 6 -3 5 1 10 9 10 11 0 16 9 16 27 0 23 -13 25 -16 2 -1 -5 -2
-12 -3 -15 0 -4 -8 -1 -16 6 -9 7 -18 10 -22 6 -3 -3 -1 -6 5 -6 7 0 12 -9 12
-19 0 -11 6 -21 13 -24 7 -2 8 -8 3 -13 -5 -5 -11 -3 -14 5 -2 7 -14 23 -25
34 -11 11 -20 29 -21 40 -1 11 -8 22 -16 24 -13 4 -13 3 0 -6 8 -5 11 -13 7
-17 -4 -4 -23 9 -42 29 -24 24 -52 40 -92 52 -58 16 -162 60 -240 101 -24 12
-43 22 -44 21z"/>
<path d="M489 426 c-36 -12 -79 -30 -95 -38 -16 -8 -67 -35 -114 -60 -110 -57
-125 -67 -161 -116 -22 -31 -32 -57 -39 -114 -5 -40 -10 -79 -10 -85 0 -10 53
-13 234 -13 l234 0 10 28 c6 15 23 58 37 97 14 38 37 82 51 96 23 24 23 27 9
39 -42 35 -75 99 -75 144 0 25 -3 46 -7 45 -5 0 -38 -10 -74 -23z"/>
</g>
</svg>
